<svg width="32" height="31" viewBox="0 0 32 31" fill="none" xmlns="http://www.w3.org/2000/svg">
<path d="M30.6481 21.8912L28.0011 19.2412C27.2671 18.5112 26.0841 18.5112 25.3531 19.2412L24.1921 20.4012L12.9871 9.19416L15.4141 6.76616L8.68111 0.0351562L6.25311 2.46316L3.16111 5.55316L0.787109 7.92716L7.51911 14.6602L9.89611 12.2872L21.0991 23.4922L20.0511 24.5412C19.3191 25.2702 19.3171 26.4572 20.0511 27.1892L22.6981 29.8372C23.4321 30.5712 24.6171 30.5712 25.3481 29.8372L30.6471 24.5402C31.3801 23.8072 31.3801 22.6232 30.6481 21.8912Z" fill="url(#paint0_linear_25978_537)"/>
<defs>
<linearGradient id="paint0_linear_25978_537" x1="15.992" y1="0.0351562" x2="15.992" y2="30.3877" gradientUnits="userSpaceOnUse">
<stop stop-color="#EF8080"/>
<stop offset="1" stop-color="#F0145A"/>
</linearGradient>
</defs>
</svg>
